<svg xmlns="http://www.w3.org/2000/svg">
  <defs>
    <symbol id="heading-hero-underline" viewBox="0 0 217 30" width="215" height="24">
      <path d="M2.40759 2.80906C12.4088 16.2624 94.0715 48.3383 215.507 2.80906" stroke="#AE8FF7" stroke-width="6" fill="none"/>
    </symbol>
    <symbol id="database" viewBox="0 0 16 16">
      <path d="M14 2.5C14 3.328 11.314 4 8 4s-6-.672-6-1.5S4.686 1 8 1s6 .672 6 1.5" />
      <path d="M8 5c-3.3 0-6-.7-6-1.5v3C2 7.3 4.7 8 8 8s6-.7 6-1.5v-3C14 4.3 11.3 5 8 5" />
      <path d="M8 9c-3.3 0-6-.7-6-1.5v3c0 .8 2.7 1.5 6 1.5s6-.7 6-1.5v-3C14 8.3 11.3 9 8 9" />
      <path d="M8 13c-3.3 0-6-.7-6-1.5v3c0 .8 2.7 1.5 6 1.5s6-.7 6-1.5v-3c0 .8-2.7 1.5-6 1.5" />
    </symbol>
    <symbol id="dashboard" viewBox="0 0 512 512">
      <path d="M187.31 155.36c-4.72 55.29-69.46 93.45-128.79 49.01-.47-.35-.89-.77-1.24-1.23-44.57-59.32-6.41-124.16 48.91-128.89 3.49-.3 6.46 2.51 6.46 6.01v62.61c0 3.33 2.7 6.03 6.03 6.03h62.61c3.5 0 6.31 2.97 6.01 6.46Zm23.91-36.23c-3.09-36.23-31.96-65.1-68.19-68.19-3.49-.3-6.46 2.51-6.46 6.01v62.61c0 3.33 2.7 6.03 6.03 6.03h62.61c3.5 0 6.31-2.98 6.01-6.46M482.89 0H29.03c-.73 0-1.46.12-2.14.39C14.11 5.28 5.28 14.11.39 26.89.13 27.57 0 28.3 0 29.03v351.45c0 .78.15 1.56.45 2.29 5.46 13.22 13.95 24.38 30.06 26.75.31.05.62.07.93.07l443.02.02c20.46.66 35.69-12.63 37.52-32.66.02-.21.03-.42.03-.62l-.03-344.94q0-.45-.06-.9C509.65 14.38 498.46 5.86 485.16.45a6 6 0 0 0-2.26-.43ZM21.21 338.67c-3.33 0-6.03-2.7-6.03-6.02l-.19-298.83c0-.47.05-.93.15-1.39 2.18-9.16 8.08-15.28 17.43-17.22.4-.08.82-.12 1.23-.12h442.86c12.08.41 19.85 8.21 20.29 20.12l-.09 297.42c0 3.33-2.7 6.03-6.03 6.03H21.21ZM360.52 507.8c5.95-18.46 1.7-41.64-18.38-48a5.9 5.9 0 0 1-3.01-2.19l-21.93-30.38a6.02 6.02 0 0 0-4.89-2.5l-127.98.06c-1.96 0-3.8.96-4.93 2.56l-20.89 29.74a6.1 6.1 0 0 1-3.44 2.37c-15.71 4.04-22.73 18.12-21.51 33.98.07 5.1.56 9.87 2.15 14.43.85 2.44 3.13 4.1 5.72 4.1h213.34c2.62 0 4.94-1.69 5.74-4.18Zm105.9-343.74h-38.91c-3.31 0-6 2.69-6 6v148.85c0 3.31 2.69 6 6 6h38.91c3.31 0 6-2.69 6-6V170.06c0-3.31-2.69-6-6-6M270.1 324.91h37.25c3.31 0 6-2.69 6-6V208.97c0-3.31-2.69-6-6-6H270.1c-3.31 0-6 2.69-6 6v109.94c0 3.31 2.69 6 6 6m78.63 0h38.24c3.31 0 6-2.69 6-6v-53.64c0-3.31-2.69-6-6-6h-38.24c-3.31 0-6 2.69-6 6v53.64c0 3.31 2.69 6 6 6m-114.11-6v-61.04c0-3.31-2.69-6-6-6h-38.04c-3.31 0-6 2.69-6 6v61.04c0 3.31 2.69 6 6 6h38.04c3.31 0 6-2.69 6-6M448.69 69.66c-15.01 0-27.17 12.17-27.17 27.17 0 6.76 2.48 12.94 6.56 17.7l-49.69 74.1c-3.24-1.37-6.8-2.12-10.54-2.12-6.53 0-12.52 2.31-17.21 6.15l-34.68-23.26c1.17-3.04 1.82-6.33 1.82-9.78 0-15.01-12.17-27.17-27.17-27.17s-27.17 12.17-27.17 27.17c0 2.29.29 4.52.82 6.65l-34.73 20.05a27.06 27.06 0 0 0-18.92-7.67c-15.01 0-27.17 12.17-27.17 27.17s12.17 27.17 27.17 27.17 27.17-12.17 27.17-27.17c0-2.3-.29-4.53-.82-6.66l34.73-20.05c4.89 4.75 11.56 7.68 18.92 7.68 6.17 0 11.85-2.06 16.41-5.52l35.14 23.56c-.96 2.77-1.48 5.75-1.48 8.85 0 15.01 12.17 27.17 27.17 27.17s27.17-12.17 27.17-27.17c0-5.86-1.86-11.29-5.02-15.72l50.45-75.23c2.6.83 5.37 1.28 8.24 1.28 15.01 0 27.17-12.17 27.17-27.17s-12.17-27.17-27.17-27.17Z"/>
    </symbol>
    <symbol id="analytics" viewBox="0 0 512 512">
        <path d="M16.01,415.79l-.03-87.06c0-9.7,6.98-16.82,16.68-16.8l31.39.07c8.42.02,15.92,6.7,15.93,15.47l.07,88.33,15.95.02v-167.69c.01-9.05,7.12-16.04,15.98-16.04h32.01c9.39,0,16.08,7.39,16.08,16.68v167.1s15.95-.05,15.95-.05v-247.05c-.01-8.63,5.94-16.18,14.88-16.44,11.46-.33,22.76-.3,34.26-.01,8.55.21,14.65,7.58,14.89,15.62l.03,12.32c-37.44,46.8-37.4,112.84,0,159.58l-.02,75.96,15.94.04.07-59.32c18.53,16.03,39.98,25.96,63.98,30l.03,29.19,8.61.19c4.18.3,7.27,3.79,7.35,7.9.06,3.14-2.77,8.02-7.13,8.02l-320.7.02c-4.45,0-7.56-3.22-8.11-7.04s2.35-8.65,6.66-8.77l9.28-.25ZM33.36,261.09c47.24-21.65,97.65-60.71,130.88-101.15,21.77-26.49,39.01-55.99,50.82-87.95l1.92,5.31c1.37,3.77,5.83,5.31,9.38,4.13,2.79-.92,6.47-4.4,5.62-8.19l-7.76-34.56c-.71-3.19-3.29-5.59-5.78-6.32-3.52-1.04-6.2.43-8.71,2.73l-23.68,21.75c-3.82,3.51-4.85,8.5-1.19,12.21,3.46,3.51,8.73,3.31,12.27-.54.74-.81,2.03-1.83,2.99-2.53C167.28,155.8,90.5,220.17,4.47,256.63c-4.66,1.97-5.5,7.75-3.28,11.24,2.62,4.12,7.02,4.75,11.39,2.75l20.79-9.53ZM320.04,88.7c0-8.85-6.22-15.63-14.97-16.44l-34.13.14c-8.26.03-14.33,7.01-14.96,15.03l.04,76.14c18.5-16.04,39.98-25.92,64.03-30.03l-.02-44.85ZM511.99,364.02l-38.41-35.52c-7.26-6.72-18.21-5.36-25.1.88l-12.03-12.46c11.41-19.26,16.7-41.04,15.45-63.07-3.11-54.75-45.1-98.52-98.59-104.94-54.35-6.52-106.47,27.19-121.03,80.46l-.85,3.1c-12.2,44.65,6.09,91.55,42.76,118.12,37.84,27.41,88.11,28.62,127.67,2.75l11.25,11.69c-5.7,7.15-7.92,18.74-.73,25.99l85.53,86.33c4.75,4.8,10.08,2.28,14.1-1.6v-111.73ZM340,355.94c-52.97,0-95.9-42.94-95.9-95.9s42.94-95.9,95.9-95.9,95.9,42.94,95.9,95.9-42.94,95.9-95.9,95.9ZM414.75,343.49l12.43-12.95,9.95,10.24-12.53,12.71-9.84-10Z"/>
    </symbol>
    <symbol id="arrow-right" viewBox="0 0 18 15">
      <path d="M9.25609 0.303837C9.15977 0.39982 9.08335 0.51387 9.0312 0.63945C8.97906 0.76503 8.95222 0.899669 8.95222 1.03565C8.95222 1.17162 8.97906 1.30626 9.0312 1.43184C9.08335 1.55742 9.15977 1.67147 9.25609 1.76745L13.6891 6.20049L1.03315 6.20049C0.759144 6.20049 0.496361 6.30933 0.302611 6.50309C0.108858 6.69684 9.86496e-06 6.95962 9.85298e-06 7.23363C9.841e-06 7.50763 0.108858 7.77042 0.302611 7.96417C0.496361 8.15792 0.759144 8.26677 1.03315 8.26677L13.6891 8.26677L9.25609 12.7015C9.062 12.8956 8.95296 13.1588 8.95296 13.4333C8.95296 13.7078 9.062 13.971 9.25609 14.1651C9.45017 14.3592 9.71341 14.4683 9.98789 14.4683C10.2624 14.4683 10.5256 14.3592 10.7197 14.1651L16.9185 7.9663C17.0149 7.87031 17.0913 7.75626 17.1434 7.63068C17.1956 7.5051 17.2224 7.37046 17.2224 7.23449C17.2224 7.09851 17.1956 6.96387 17.1434 6.83829C17.0913 6.71271 17.0149 6.59866 16.9185 6.50268L10.7197 0.303837C10.6237 0.207521 10.5097 0.131099 10.3841 0.0789544C10.2585 0.0268103 10.1239 -3.27352e-05 9.98789 -3.27412e-05C9.85192 -3.27471e-05 9.71728 0.0268103 9.5917 0.0789544C9.46612 0.131099 9.35207 0.207521 9.25609 0.303837Z"/>
    </symbol>
    <symbol id="arrow-left" viewBox="0 0 18 15">
      <path d="M7.96633 14.1644C8.06264 14.0684 8.13907 13.9544 8.19121 13.8288C8.24336 13.7032 8.2702 13.5686 8.2702 13.4326C8.2702 13.2966 8.24336 13.162 8.19121 13.0364C8.13907 12.9108 8.06264 12.7968 7.96633 12.7008L3.53329 8.26778L16.1893 8.26777C16.4633 8.26777 16.7261 8.15893 16.9198 7.96517C17.1136 7.77142 17.2224 7.50864 17.2224 7.23463C17.2224 6.96063 17.1136 6.69785 16.9198 6.50409C16.7261 6.31034 16.4633 6.20149 16.1893 6.20149L3.53329 6.2015L7.96633 1.76674C8.16041 1.57265 8.26945 1.30941 8.26945 1.03493C8.26945 0.760451 8.16041 0.497212 7.96633 0.303124C7.77224 0.109037 7.509 -3.25337e-07 7.23452 -3.16231e-07C6.96004 -3.07125e-07 6.6968 0.109037 6.50271 0.303125L0.303869 6.50197C0.207553 6.59795 0.131132 6.712 0.078987 6.83758C0.0268423 6.96316 3.10255e-07 7.0978 3.16198e-07 7.23377C3.22142e-07 7.36975 0.0268424 7.50439 0.0789871 7.62997C0.131132 7.75555 0.207553 7.8696 0.30387 7.96558L6.50271 14.1644C6.59869 14.2607 6.71275 14.3372 6.83833 14.3893C6.96391 14.4415 7.09854 14.4683 7.23452 14.4683C7.3705 14.4683 7.50513 14.4415 7.63071 14.3893C7.75629 14.3372 7.87035 14.2607 7.96633 14.1644Z"/>
    </symbol>
    <symbol id="quote" viewBox="0 0 16 16">
      <path d="M16 8c0 3.866-3.582 7-8 7a9 9 0 0 1-2.347-.306c-.584.296-1.925.864-4.181 1.234-.2.032-.352-.176-.273-.362.354-.836.674-1.95.77-2.966C.744 11.37 0 9.76 0 8c0-3.866 3.582-7 8-7s8 3.134 8 7M7.194 6.766a1.7 1.7 0 0 0-.227-.272 1.5 1.5 0 0 0-.469-.324l-.008-.004A1.8 1.8 0 0 0 5.734 6C4.776 6 4 6.746 4 7.667c0 .92.776 1.666 1.734 1.666.343 0 .662-.095.931-.26-.137.389-.39.804-.81 1.22a.405.405 0 0 0 .011.59c.173.16.447.155.614-.01 1.334-1.329 1.37-2.758.941-3.706a2.5 2.5 0 0 0-.227-.4zM11 9.073c-.136.389-.39.804-.81 1.22a.405.405 0 0 0 .012.59c.172.16.446.155.613-.01 1.334-1.329 1.37-2.758.942-3.706a2.5 2.5 0 0 0-.228-.4 1.7 1.7 0 0 0-.227-.273 1.5 1.5 0 0 0-.469-.324l-.008-.004A1.8 1.8 0 0 0 10.07 6c-.957 0-1.734.746-1.734 1.667 0 .92.777 1.666 1.734 1.666.343 0 .662-.095.931-.26z"></path>
    </symbol>
    <symbol id="check-mark" viewBox="0 0 24 17" fill="none">
      <path d="M1.14331 7.61118L8.41967 14.8875L22.1639 1.14331"/>
    </symbol>
    <symbol id="note" viewBox="0 0 28 28">
      <path d="M15 20V12H11V14H13V20H10V22H18V20H15ZM14 6C13.7033 6 13.4133 6.08797 13.1666 6.2528C12.92 6.41762 12.7277 6.65189 12.6142 6.92597C12.5006 7.20006 12.4709 7.50166 12.5288 7.79264C12.5867 8.08361 12.7296 8.35088 12.9393 8.56066C13.1491 8.77044 13.4164 8.9133 13.7074 8.97118C13.9983 9.02906 14.2999 8.99935 14.574 8.88582C14.8481 8.77229 15.0824 8.58003 15.2472 8.33335C15.412 8.08668 15.5 7.79667 15.5 7.5C15.5 7.10218 15.342 6.72064 15.0607 6.43934C14.7794 6.15804 14.3978 6 14 6Z"/>
      <path d="M14 28C11.2311 28 8.52431 27.1789 6.22202 25.6406C3.91973 24.1022 2.12532 21.9157 1.06569 19.3576C0.00606596 16.7994 -0.271181 13.9845 0.269012 11.2687C0.809205 8.55301 2.14258 6.05845 4.10051 4.10051C6.05845 2.14258 8.55301 0.809205 11.2687 0.269012C13.9845 -0.271181 16.7994 0.00606596 19.3576 1.06569C21.9157 2.12532 24.1022 3.91973 25.6406 6.22202C27.1789 8.52431 28 11.2311 28 14C28 17.713 26.525 21.274 23.8995 23.8995C21.274 26.525 17.713 28 14 28ZM14 2.00001C11.6266 2.00001 9.30655 2.70379 7.33316 4.02237C5.35977 5.34095 3.8217 7.21509 2.91345 9.40781C2.0052 11.6005 1.76756 14.0133 2.23058 16.3411C2.69361 18.6689 3.83649 20.8071 5.51472 22.4853C7.19296 24.1635 9.33115 25.3064 11.6589 25.7694C13.9867 26.2325 16.3995 25.9948 18.5922 25.0866C20.7849 24.1783 22.6591 22.6402 23.9776 20.6668C25.2962 18.6935 26 16.3734 26 14C26 10.8174 24.7357 7.76516 22.4853 5.51472C20.2348 3.26429 17.1826 2.00001 14 2.00001Z"/>
    </symbol>
    <symbol id="plus" viewBox="0 0 22 22">
      <path d="M21.4355 12.2489H12.2489V21.4355H9.18665V12.2489H0V9.18665H9.18665V0H12.2489V9.18665H21.4355V12.2489Z"/>
    </symbol>
    <symbol id="linkedin" viewBox="0 0 31 31">
      <g clip-path="url(#clip0_6_982)">
        <path d="M0 2.15982C0 0.966828 0.991329 0 2.21447 0H27.94C29.1632 0 30.1545 0.966828 30.1545 2.15982V27.9947C30.1545 29.1877 29.1632 30.1545 27.94 30.1545H2.21447C0.991329 30.1545 0 29.1877 0 27.9947V2.15982ZM9.31585 25.2431V11.6264H4.79079V25.2431H9.31585ZM7.05426 9.76628C8.63172 9.76628 9.61363 8.72218 9.61363 7.41423C9.58536 6.07801 8.63361 5.06218 7.08442 5.06218C5.53523 5.06218 4.52317 6.0799 4.52317 7.41423C4.52317 8.72218 5.50508 9.76628 7.02411 9.76628H7.05426ZM16.3042 25.2431V17.6385C16.3042 17.2314 16.3343 16.8243 16.4549 16.5341C16.781 15.7218 17.5254 14.8794 18.7768 14.8794C20.4146 14.8794 21.0686 16.127 21.0686 17.9589V25.2431H25.5936V17.4331C25.5936 13.2491 23.3622 11.3042 20.3844 11.3042C17.9834 11.3042 16.9072 12.6234 16.3042 13.5526V13.5997H16.274C16.284 13.5839 16.2941 13.5682 16.3042 13.5526V11.6264H11.781C11.8375 12.9042 11.781 25.2431 11.781 25.2431H16.3042Z"/>
      </g>
      <defs>
        <clipPath id="clip0_6_982">
          <rect width="30.1545" height="30.1545" fill="white"/>
        </clipPath>
      </defs>
    </symbol>
    <symbol id="facebook" viewBox="0 0 31 31">
      <path d="M30.1545 15.0772C30.1545 6.7546 23.3999 0 15.0772 0C6.7546 0 0 6.7546 0 15.0772C0 22.3746 5.18657 28.4508 12.0618 29.8529V19.6004H9.04634V15.0772H12.0618V11.3079C12.0618 8.39802 14.4289 6.0309 17.3388 6.0309H21.1081V10.5541H18.0927C17.2634 10.5541 16.585 11.2325 16.585 12.0618V15.0772H21.1081V19.6004H16.585V30.0791C24.199 29.3252 30.1545 22.9023 30.1545 15.0772Z"/>
    </symbol>
    <symbol id="instagram" viewBox="0 0 31 31">
      <path d="M16.6281 0.0018551C17.7283 -0.00236687 18.8285 0.00869096 19.9285 0.0350251L20.221 0.0455792C20.5587 0.057641 20.8919 0.0727182 21.2945 0.0908109C22.8987 0.166197 23.9933 0.419495 24.9537 0.791903C25.9488 1.17486 26.7871 1.69352 27.6254 2.53182C28.3919 3.28508 28.9851 4.19626 29.3638 5.202C29.7362 6.16242 29.9895 7.25853 30.0649 8.86275C30.083 9.2638 30.0981 9.59852 30.1101 9.93625L30.1192 10.2287C30.146 11.3282 30.1575 12.4279 30.1538 13.5276L30.1554 14.6524V16.6275C30.1591 17.7278 30.1475 18.828 30.1207 19.9279L30.1116 20.2204C30.0996 20.5582 30.0845 20.8914 30.0664 21.2939C29.991 22.8982 29.7347 23.9928 29.3638 24.9532C28.9863 25.96 28.393 26.8719 27.6254 27.6249C26.8715 28.3913 25.9598 28.9845 24.9537 29.3633C23.9933 29.7357 22.8987 29.989 21.2945 30.0644C20.8919 30.0825 20.5587 30.0975 20.221 30.1096L19.9285 30.1186C18.8285 30.1454 17.7283 30.157 16.6281 30.1533L15.5033 30.1548H13.5297C12.4294 30.1585 11.3292 30.147 10.2293 30.1202L9.93677 30.1111C9.57885 30.0981 9.22101 30.0831 8.86327 30.0659C7.25905 29.9905 6.16445 29.7342 5.20252 29.3633C4.19639 28.9854 3.28505 28.392 2.53234 27.6249C1.76498 26.8714 1.1712 25.9597 0.792425 24.9532C0.420017 23.9928 0.16672 22.8982 0.0913333 21.2939C0.0745417 20.9362 0.0594643 20.5783 0.0461016 20.2204L0.0385632 19.9279C0.0107662 18.828 -0.00179954 17.7278 0.000869958 16.6275V13.5276C-0.00333805 12.4279 0.00771977 11.3282 0.03404 10.2287L0.044594 9.93625C0.0566558 9.59852 0.071733 9.2638 0.0898257 8.86275C0.165212 7.25702 0.418509 6.16392 0.790917 5.202C1.16992 4.19577 1.76485 3.28484 2.53385 2.53332C3.28604 1.76552 4.19681 1.1712 5.20252 0.791903C6.16445 0.419495 7.25755 0.166197 8.86327 0.0908109L9.93677 0.0455792L10.2293 0.0380407C11.3287 0.0102576 12.4284 -0.0023081 13.5282 0.000347482L16.6281 0.0018551ZM15.0781 7.54048C14.0793 7.52635 13.0875 7.71088 12.1606 8.08336C11.2337 8.45583 10.3901 9.00882 9.67872 9.71017C8.96737 10.4115 8.40251 11.2473 8.01697 12.1688C7.63142 13.0904 7.43288 14.0794 7.43288 15.0783C7.43288 16.0773 7.63142 17.0663 8.01697 17.9879C8.40251 18.9094 8.96737 19.7452 9.67872 20.4465C10.3901 21.1479 11.2337 21.7009 12.1606 22.0733C13.0875 22.4458 14.0793 22.6303 15.0781 22.6162C17.0775 22.6162 18.995 21.822 20.4087 20.4082C21.8225 18.9944 22.6167 17.077 22.6167 15.0776C22.6167 13.0782 21.8225 11.1607 20.4087 9.74698C18.995 8.33321 17.0775 7.54048 15.0781 7.54048ZM15.0781 10.5559C15.679 10.5449 16.276 10.6536 16.8343 10.8759C17.3926 11.0981 17.9011 11.4294 18.3299 11.8504C18.7588 12.2713 19.0995 12.7735 19.3321 13.3276C19.5647 13.8817 19.6845 14.4766 19.6846 15.0776C19.6847 15.6785 19.5651 16.2735 19.3327 16.8276C19.1002 17.3818 18.7597 17.8841 18.331 18.3052C17.9023 18.7263 17.394 19.0578 16.8357 19.2802C16.2774 19.5027 15.6805 19.6116 15.0796 19.6008C13.88 19.6008 12.7295 19.1242 11.8813 18.276C11.033 17.4277 10.5564 16.2772 10.5564 15.0776C10.5564 13.878 11.033 12.7275 11.8813 11.8792C12.7295 11.031 13.88 10.5544 15.0796 10.5544L15.0781 10.5559ZM22.9937 5.27889C22.5073 5.29836 22.0473 5.50528 21.71 5.8563C21.3727 6.20733 21.1844 6.67524 21.1844 7.16204C21.1844 7.64883 21.3727 8.11674 21.71 8.46777C22.0473 8.8188 22.5073 9.02572 22.9937 9.04519C23.4935 9.04519 23.9729 8.84662 24.3263 8.49318C24.6798 8.13974 24.8783 7.66037 24.8783 7.16053C24.8783 6.66069 24.6798 6.18132 24.3263 5.82788C23.9729 5.47444 23.4935 5.27587 22.9937 5.27587V5.27889Z" />
    </symbol>
  </defs>
</svg>